# xmcd CD database file
# Generated: Wed Mar 13 09:00:37 2002 by WSPse's MP3c
#
# Track frame offsets:
#       150
#       7668
#       13403
#       23040
#       31373
#       37098
#       44041
#       51885
#       55832
#       67915
#       74012
#       79549
#       80319
#       84586
#       89007
#       105357
#
# Disc length: 1475 seconds
#
# Revision: 0
# Processed by: cddbd v1.4PL0 Copyright (c) Steve Scherf et al.
# Submitted via: MP3c 0.26
#   WSPse mp3c-0.26 (NLS) - ENGLISH (Dec 16 2001)
#
DISCID=c805c110
DTITLE=Seven Quilts for Seven Sisters - (Let the sisters take you) Down By The R
DTITLE=iverside
DYEAR=1900
DGENRE=
TTITLE0=Steal Away
TTITLE1=Swing Low, Sweet Chariot
TTITLE2=Lay Down My Burden
TTITLE3=Nobody Knows the Trouble I See
TTITLE4=Sometimes I feel like a motherless child
TTITLE5=We are climbing Jacob's Ladder
TTITLE6=I Got Shoes
TTITLE7=No Hidden Place Down there
TTITLE8=Sing Because I'm happy
TTITLE9=Mornin' Train
TTITLE10=Walk Together Little Children
TTITLE11=Dedication
TTITLE12=Angels Keep a Watchin' over me
TTITLE13=It's me, oh lord
TTITLE14=Over My Head
TTITLE15=I Couldn't Head Nobody Pray
EXTD=
EXTT0=
EXTT1=
EXTT2=
EXTT3=
EXTT4=
EXTT5=
EXTT6=
EXTT7=
EXTT8=
EXTT9=
EXTT10=
EXTT11=
EXTT12=
EXTT13=
EXTT14=
EXTT15=
PLAYORDER=
